<svg width="107" height="17" viewBox="0 0 107 17" fill="none" xmlns="http://www.w3.org/2000/svg">
<path fill-rule="evenodd" clip-rule="evenodd" d="M63.1579 1.34211C63.1579 0.862499 62.7691 0.473694 62.2895 0.473694C61.8099 0.473694 61.4211 0.862499 61.4211 1.34212V15.2369C61.4211 15.7165 61.8099 16.1053 62.2895 16.1053C62.7691 16.1053 63.1579 15.7165 63.1579 15.2369V1.34211ZM99.9211 1.05264C99.4414 1.05264 99.0526 1.44145 99.0526 1.92106V14.6579C99.0526 15.1375 99.4414 15.5263 99.9211 15.5263C100.401 15.5263 100.789 15.1375 100.789 14.6579V1.92106C100.789 1.44145 100.401 1.05264 99.9211 1.05264ZM101.947 5.39475C101.947 4.91513 102.336 4.52633 102.816 4.52633C103.295 4.52633 103.684 4.91513 103.684 5.39475V11.7632C103.684 12.2428 103.295 12.6316 102.816 12.6316C102.336 12.6316 101.947 12.2428 101.947 11.7632V5.39475ZM104.842 6.55264C104.842 6.07303 105.231 5.68422 105.711 5.68422C106.19 5.68422 106.579 6.07303 106.579 6.55264V10.0263C106.579 10.5059 106.19 10.8947 105.711 10.8947C105.231 10.8947 104.842 10.5059 104.842 10.0263V6.55264ZM96.1579 6.55264C96.1579 6.07303 96.5467 5.68422 97.0263 5.68422C97.5059 5.68422 97.8947 6.07303 97.8947 6.55264V10.0263C97.8947 10.5059 97.5059 10.8947 97.0263 10.8947C96.5467 10.8947 96.1579 10.5059 96.1579 10.0263V6.55264ZM94.1316 3.36843C93.652 3.36843 93.2632 3.75724 93.2632 4.23685V12.9211C93.2632 13.4007 93.652 13.7895 94.1316 13.7895C94.6112 13.7895 95 13.4007 95 12.9211V4.23685C95 3.75724 94.6112 3.36843 94.1316 3.36843ZM40 3.07896C40 2.59934 39.6112 2.21054 39.1316 2.21054C38.652 2.21054 38.2632 2.59934 38.2632 3.07896V14.079C38.2632 14.5586 38.652 14.9474 39.1316 14.9474C39.6112 14.9474 40 14.5586 40 14.079V3.07896ZM42.0263 3.36843C42.5059 3.36843 42.8947 3.75724 42.8947 4.23685V12.9211C42.8947 13.4007 42.5059 13.7895 42.0263 13.7895C41.5467 13.7895 41.1579 13.4007 41.1579 12.9211V4.23685C41.1579 3.75724 41.5467 3.36843 42.0263 3.36843ZM45.7895 5.39475C45.7895 4.91513 45.4007 4.52633 44.9211 4.52633C44.4414 4.52633 44.0526 4.91513 44.0526 5.39475V11.1842C44.0526 11.6638 44.4414 12.0526 44.9211 12.0526C45.4007 12.0526 45.7895 11.6638 45.7895 11.1842V5.39475ZM47.8158 3.94738C48.2954 3.94738 48.6842 4.33618 48.6842 4.8158V11.7632C48.6842 12.2428 48.2954 12.6316 47.8158 12.6316C47.3362 12.6316 46.9474 12.2428 46.9474 11.7632V4.8158C46.9474 4.33618 47.3362 3.94738 47.8158 3.94738ZM51.5789 4.8158C51.5789 4.33618 51.1901 3.94738 50.7105 3.94738C50.2309 3.94738 49.8421 4.33618 49.8421 4.8158V11.7632C49.8421 12.2428 50.2309 12.6316 50.7105 12.6316C51.1901 12.6316 51.5789 12.2428 51.5789 11.7632V4.8158ZM53.6053 2.21054C54.0849 2.21054 54.4737 2.59934 54.4737 3.07896V13.5C54.4737 13.9796 54.0849 14.3684 53.6053 14.3684C53.1256 14.3684 52.7368 13.9796 52.7368 13.5V3.07896C52.7368 2.59934 53.1256 2.21054 53.6053 2.21054ZM57.3684 5.39475C57.3684 4.91513 56.9796 4.52633 56.5 4.52633C56.0204 4.52633 55.6316 4.91513 55.6316 5.39475V11.1842C55.6316 11.6638 56.0204 12.0526 56.5 12.0526C56.9796 12.0526 57.3684 11.6638 57.3684 11.1842V5.39475ZM59.3947 2.78948C59.8744 2.78948 60.2632 3.17829 60.2632 3.65791V12.9211C60.2632 13.4007 59.8744 13.7895 59.3947 13.7895C58.9151 13.7895 58.5263 13.4007 58.5263 12.9211V3.6579C58.5263 3.17829 58.9151 2.78948 59.3947 2.78948ZM65.1842 2.21054C65.6638 2.21054 66.0526 2.59934 66.0526 3.07896V13.5C66.0526 13.9796 65.6638 14.3684 65.1842 14.3684C64.7046 14.3684 64.3158 13.9796 64.3158 13.5V3.07896C64.3158 2.59934 64.7046 2.21054 65.1842 2.21054ZM68.9474 3.07896C68.9474 2.59934 68.5586 2.21054 68.0789 2.21054C67.5993 2.21054 67.2105 2.59934 67.2105 3.07896V13.5C67.2105 13.9796 67.5993 14.3684 68.0789 14.3684C68.5586 14.3684 68.9474 13.9796 68.9474 13.5V3.07896ZM70.9737 3.94738C71.4533 3.94738 71.8421 4.33618 71.8421 4.8158V11.7632C71.8421 12.2428 71.4533 12.6316 70.9737 12.6316C70.4941 12.6316 70.1053 12.2428 70.1053 11.7632V4.8158C70.1053 4.33618 70.4941 3.94738 70.9737 3.94738ZM74.7368 5.39475C74.7368 4.91513 74.348 4.52633 73.8684 4.52633C73.3888 4.52633 73 4.91513 73 5.39475V11.7632C73 12.2428 73.3888 12.6316 73.8684 12.6316C74.348 12.6316 74.7368 12.2428 74.7368 11.7632V5.39475ZM76.7632 5.10527C77.2428 5.10527 77.6316 5.49408 77.6316 5.97369V11.1842C77.6316 11.6638 77.2428 12.0526 76.7632 12.0526C76.2835 12.0526 75.8947 11.6638 75.8947 11.1842V5.97369C75.8947 5.49408 76.2835 5.10527 76.7632 5.10527ZM80.5263 6.55264C80.5263 6.07303 80.1375 5.68422 79.6579 5.68422C79.1783 5.68422 78.7895 6.07303 78.7895 6.55264V10.0263C78.7895 10.5059 79.1783 10.8947 79.6579 10.8947C80.1375 10.8947 80.5263 10.5059 80.5263 10.0263V6.55264ZM82.5526 4.52633C83.0322 4.52633 83.4211 4.91513 83.4211 5.39475V11.7632C83.4211 12.2428 83.0322 12.6316 82.5526 12.6316C82.073 12.6316 81.6842 12.2428 81.6842 11.7632V5.39475C81.6842 4.91513 82.073 4.52633 82.5526 4.52633ZM86.3158 3.65791C86.3158 3.17829 85.927 2.78948 85.4474 2.78948C84.9678 2.78948 84.5789 3.17829 84.5789 3.6579V12.9211C84.5789 13.4007 84.9678 13.7895 85.4474 13.7895C85.927 13.7895 86.3158 13.4007 86.3158 12.9211V3.65791ZM88.3421 5.68422C88.8217 5.68422 89.2105 6.07303 89.2105 6.55264V10.0263C89.2105 10.5059 88.8217 10.8947 88.3421 10.8947C87.8625 10.8947 87.4737 10.5059 87.4737 10.0263V6.55264C87.4737 6.07303 87.8625 5.68422 88.3421 5.68422ZM92.1053 4.23685C92.1053 3.75724 91.7165 3.36843 91.2368 3.36843C90.7572 3.36843 90.3684 3.75724 90.3684 4.23685V12.9211C90.3684 13.4007 90.7572 13.7895 91.2368 13.7895C91.7165 13.7895 92.1053 13.4007 92.1053 12.9211V4.23685ZM36.2368 2.21054C35.7572 2.21054 35.3684 2.59934 35.3684 3.07896V14.079C35.3684 14.5586 35.7572 14.9474 36.2368 14.9474C36.7165 14.9474 37.1053 14.5586 37.1053 14.079V3.07896C37.1053 2.59934 36.7165 2.21054 36.2368 2.21054ZM32.4737 1.34211C32.4737 0.862499 32.8625 0.473694 33.3421 0.473694C33.8217 0.473694 34.2105 0.862499 34.2105 1.34212V15.2369C34.2105 15.7165 33.8217 16.1053 33.3421 16.1053C32.8625 16.1053 32.4737 15.7165 32.4737 15.2369V1.34211ZM30.4474 4.52633C29.9678 4.52633 29.5789 4.91513 29.5789 5.39475V11.1842C29.5789 11.6638 29.9678 12.0526 30.4474 12.0526C30.927 12.0526 31.3158 11.6638 31.3158 11.1842V5.39475C31.3158 4.91513 30.927 4.52633 30.4474 4.52633ZM26.6842 4.8158C26.6842 4.33618 27.073 3.94738 27.5526 3.94738C28.0322 3.94738 28.421 4.33618 28.421 4.8158V11.7632C28.421 12.2428 28.0322 12.6316 27.5526 12.6316C27.073 12.6316 26.6842 12.2428 26.6842 11.7632V4.8158ZM24.6579 3.94738C24.1783 3.94738 23.7895 4.33618 23.7895 4.8158V11.7632C23.7895 12.2428 24.1783 12.6316 24.6579 12.6316C25.1375 12.6316 25.5263 12.2428 25.5263 11.7632V4.8158C25.5263 4.33618 25.1375 3.94738 24.6579 3.94738ZM20.8947 5.97369C20.8947 5.49408 21.2835 5.10527 21.7632 5.10527C22.2428 5.10527 22.6316 5.49408 22.6316 5.97369V11.1842C22.6316 11.6638 22.2428 12.0526 21.7632 12.0526C21.2835 12.0526 20.8947 11.6638 20.8947 11.1842V5.97369ZM10.1842 8.00001C9.7046 8.00001 9.31579 8.38881 9.31579 8.86843C9.31579 9.34805 9.7046 9.73685 10.1842 9.73685C10.6638 9.73685 11.0526 9.34805 11.0526 8.86843C11.0526 8.38881 10.6638 8.00001 10.1842 8.00001ZM6.42106 8.86843C6.42106 8.38881 6.80987 8.00001 7.28948 8.00001C7.7691 8.00001 8.15791 8.38881 8.15791 8.86843C8.15791 9.34805 7.7691 9.73685 7.28948 9.73685C6.80987 9.73685 6.42106 9.34805 6.42106 8.86843ZM4.39474 8.00001C3.91512 8.00001 3.52631 8.38881 3.52631 8.86843C3.52631 9.34805 3.91512 9.73685 4.39474 9.73685C4.87435 9.73685 5.26316 9.34805 5.26316 8.86843C5.26316 8.38881 4.87435 8.00001 4.39474 8.00001ZM0.631584 8.86843C0.631584 8.38881 1.02039 8.00001 1.50001 8.00001C1.97962 8.00001 2.36843 8.38881 2.36843 8.86843C2.36843 9.34805 1.97962 9.73685 1.50001 9.73685C1.02039 9.73685 0.631584 9.34805 0.631584 8.86843ZM15.9737 6.84211C15.4941 6.84211 15.1053 7.23092 15.1053 7.71054V10.0263C15.1053 10.5059 15.4941 10.8947 15.9737 10.8947C16.4533 10.8947 16.8421 10.5059 16.8421 10.0263V7.71054C16.8421 7.23092 16.4533 6.84211 15.9737 6.84211ZM18 7.13159C18 6.65197 18.3888 6.26317 18.8684 6.26317C19.348 6.26317 19.7368 6.65197 19.7368 7.13159V10.6053C19.7368 11.0849 19.348 11.4737 18.8684 11.4737C18.3888 11.4737 18 11.0849 18 10.6053V7.13159ZM13.079 7.42106C12.5993 7.42106 12.2105 7.80987 12.2105 8.28948V9.44738C12.2105 9.92699 12.5993 10.3158 13.079 10.3158C13.5586 10.3158 13.9474 9.92699 13.9474 9.44738V8.28948C13.9474 7.80987 13.5586 7.42106 13.079 7.42106Z" fill="#2A87FF"/>
</svg>
