<svg width="26" height="26" viewBox="0 0 26 26" fill="none" xmlns="http://www.w3.org/2000/svg">
<circle cx="13" cy="13" r="13" fill="#2A87FF"/>
<path d="M17.7667 12.5667H13.4333V8.23332C13.4333 7.99412 13.2392 7.79999 13 7.79999C12.7608 7.79999 12.5667 7.99412 12.5667 8.23332V12.5667H8.23334C7.99414 12.5667 7.8 12.7608 7.8 13C7.8 13.2392 7.99414 13.4333 8.23334 13.4333H12.5667V17.7667C12.5667 18.0059 12.7608 18.2 13 18.2C13.2392 18.2 13.4333 18.0059 13.4333 17.7667V13.4333H17.7667C18.0059 13.4333 18.2 13.2392 18.2 13C18.2 12.7608 18.0059 12.5667 17.7667 12.5667Z" fill="white" stroke="white" stroke-width="0.590909"/>
</svg>
