<svg width="28" height="28" viewBox="0 0 28 28" fill="none" xmlns="http://www.w3.org/2000/svg">
<path fill-rule="evenodd" clip-rule="evenodd" d="M21.43 1.92799C22.6632 0.690669 24.8125 0.690669 26.0441 1.92799C26.6614 2.54589 27 3.36667 27 4.24125C27 5.11583 26.6599 5.93815 26.0441 6.55605L15.1018 17.5352C14.9976 17.6397 14.8674 17.715 14.7234 17.7504L10.1093 18.9078C10.0435 18.9247 9.97758 18.9324 9.91171 18.9324C9.69878 18.9324 9.49044 18.8478 9.33572 18.6926C9.13351 18.4882 9.05232 18.193 9.12125 17.9148L10.2732 13.2868C10.3085 13.1438 10.3835 13.0117 10.4877 12.9071L21.43 1.92799ZM11.0331 16.9895L14.1091 16.2179L23.1611 7.13552L20.854 4.82072L11.8021 13.9031L11.0331 16.9895ZM24.8906 5.39865L24.3146 5.97658L22.0076 3.66178L22.5835 3.08385C23.1994 2.46596 24.2748 2.46596 24.8906 3.08385C25.1985 3.3928 25.3685 3.80319 25.3685 4.24125C25.3685 4.67931 25.1985 5.0897 24.8906 5.39865ZM4.66595 25.5323H22.2645C23.4777 25.5323 24.4638 24.5074 24.4624 23.2921V12.3998C24.4624 11.9948 24.7907 11.6664 25.1957 11.6664C25.6007 11.6664 25.929 11.9948 25.929 12.3998V23.2921C25.929 25.3157 24.2847 27 22.2631 27H4.66595C2.64431 27 1 25.3171 1 23.2921V5.666C1 3.64102 2.64431 2.02987 4.66595 2.02987H15.5745C15.9798 2.02987 16.3083 2.35842 16.3083 2.76372C16.3083 3.16901 15.9798 3.49756 15.5745 3.49756H4.66595C3.45269 3.49756 2.46666 4.44936 2.46666 5.66462V23.2921C2.46666 24.5074 3.45269 25.5323 4.66595 25.5323Z" fill="#121213"/>
<path d="M26.0441 1.92799L25.8669 2.10436L25.8672 2.10469L26.0441 1.92799ZM21.43 1.92799L21.6071 2.10447L21.43 1.92799ZM26.0441 6.55605L25.867 6.37957L26.0441 6.55605ZM15.1018 17.5352L15.2788 17.7117L15.2788 17.7117L15.1018 17.5352ZM14.7234 17.7504L14.6638 17.5076L14.6626 17.5079L14.7234 17.7504ZM10.1093 18.9078L10.0485 18.6653L10.0472 18.6656L10.1093 18.9078ZM9.33572 18.6926L9.15798 18.8684L9.15864 18.8691L9.33572 18.6926ZM9.12125 17.9148L8.87865 17.8545L8.87859 17.8547L9.12125 17.9148ZM10.2732 13.2868L10.5158 13.3472L10.516 13.3466L10.2732 13.2868ZM10.4877 12.9071L10.6648 13.0836L10.6648 13.0836L10.4877 12.9071ZM14.1091 16.2179L14.1699 16.4604L14.2372 16.4435L14.2862 16.3944L14.1091 16.2179ZM11.0331 16.9895L10.7905 16.9291L10.6897 17.3334L11.0939 17.232L11.0331 16.9895ZM23.1611 7.13552L23.3381 7.312L23.514 7.13552L23.3381 6.95904L23.1611 7.13552ZM20.854 4.82072L21.0311 4.64424L20.854 4.46657L20.677 4.64424L20.854 4.82072ZM11.8021 13.9031L11.625 13.7267L11.5762 13.7756L11.5595 13.8427L11.8021 13.9031ZM24.3146 5.97658L24.1375 6.15306L24.3146 6.33073L24.4917 6.15306L24.3146 5.97658ZM24.8906 5.39865L25.0677 5.57513L24.8906 5.39865ZM22.0076 3.66178L21.8305 3.48531L21.6546 3.66178L21.8305 3.83826L22.0076 3.66178ZM22.5835 3.08385L22.7606 3.26033L22.5835 3.08385ZM24.8906 3.08385L24.7135 3.26033L24.8906 3.08385ZM24.4624 23.2921H24.2124V23.2924L24.4624 23.2921ZM26.2213 1.75162C24.8919 0.416065 22.5838 0.416223 21.253 1.75151L21.6071 2.10447C22.7426 0.965115 24.7331 0.965273 25.8669 2.10436L26.2213 1.75162ZM27.25 4.24125C27.25 3.30069 26.8853 2.41627 26.221 1.75129L25.8672 2.10469C26.4376 2.67551 26.75 3.43265 26.75 4.24125H27.25ZM26.2212 6.73253C26.8837 6.06775 27.25 5.18196 27.25 4.24125H26.75C26.75 5.04971 26.4361 5.80856 25.867 6.37957L26.2212 6.73253ZM15.2788 17.7117L26.2212 6.73253L25.867 6.37957L14.9247 17.3587L15.2788 17.7117ZM14.783 17.9932C14.9732 17.9465 15.1436 17.8474 15.2788 17.7117L14.9247 17.3587C14.8516 17.432 14.7616 17.4836 14.6638 17.5076L14.783 17.9932ZM10.1701 19.1503L14.7842 17.9929L14.6626 17.5079L10.0485 18.6653L10.1701 19.1503ZM9.91171 19.1824C9.99728 19.1824 10.0841 19.1723 10.1715 19.1499L10.0472 18.6656C10.0028 18.677 9.95788 18.6824 9.91171 18.6824V19.1824ZM9.15864 18.8691C9.36064 19.0717 9.63285 19.1824 9.91171 19.1824V18.6824C9.7647 18.6824 9.62023 18.6239 9.51279 18.5161L9.15864 18.8691ZM8.87859 17.8547C8.78866 18.2176 8.89459 18.6021 9.15798 18.8684L9.51345 18.5168C9.37243 18.3742 9.31597 18.1684 9.36391 17.975L8.87859 17.8547ZM10.0306 13.2264L8.87865 17.8545L9.36385 17.9752L10.5158 13.3472L10.0306 13.2264ZM10.3106 12.7307C10.1749 12.8668 10.0768 13.0392 10.0305 13.227L10.516 13.3466C10.5402 13.2485 10.5922 13.1565 10.6648 13.0836L10.3106 12.7307ZM21.253 1.75151L10.3106 12.7307L10.6648 13.0836L21.6071 2.10447L21.253 1.75151ZM14.0483 15.9755L10.9722 16.747L11.0939 17.232L14.1699 16.4604L14.0483 15.9755ZM22.984 6.95904L13.932 16.0415L14.2862 16.3944L23.3381 7.312L22.984 6.95904ZM20.677 4.9972L22.984 7.312L23.3381 6.95904L21.0311 4.64424L20.677 4.9972ZM11.9791 14.0796L21.0311 4.9972L20.677 4.64424L11.625 13.7267L11.9791 14.0796ZM11.2756 17.05L12.0447 13.9636L11.5595 13.8427L10.7905 16.9291L11.2756 17.05ZM24.4917 6.15306L25.0677 5.57513L24.7135 5.22217L24.1375 5.8001L24.4917 6.15306ZM21.8305 3.83826L24.1375 6.15306L24.4917 5.8001L22.1846 3.48531L21.8305 3.83826ZM22.4065 2.90737L21.8305 3.48531L22.1846 3.83826L22.7606 3.26033L22.4065 2.90737ZM25.0677 2.90737C24.3541 2.19145 23.12 2.19145 22.4065 2.90737L22.7606 3.26033C23.2787 2.74047 24.1954 2.74047 24.7135 3.26033L25.0677 2.90737ZM25.6185 4.24125C25.6185 3.73701 25.4222 3.26316 25.0677 2.90737L24.7135 3.26033C24.9747 3.52244 25.1185 3.86938 25.1185 4.24125H25.6185ZM25.0677 5.57513C25.4222 5.21934 25.6185 4.7455 25.6185 4.24125H25.1185C25.1185 4.61313 24.9747 4.96006 24.7135 5.22217L25.0677 5.57513ZM22.2645 25.2823H4.66595V25.7823H22.2645V25.2823ZM24.2124 23.2924C24.2136 24.3752 23.3339 25.2823 22.2645 25.2823V25.7823C23.6215 25.7823 24.7139 24.6396 24.7124 23.2919L24.2124 23.2924ZM24.2124 12.3998V23.2921H24.7124V12.3998H24.2124ZM25.1957 11.4164C24.6526 11.4164 24.2124 11.8567 24.2124 12.3998H24.7124C24.7124 12.1328 24.9288 11.9164 25.1957 11.9164V11.4164ZM26.179 12.3998C26.179 11.8567 25.7388 11.4164 25.1957 11.4164V11.9164C25.4626 11.9164 25.679 12.1328 25.679 12.3998H26.179ZM26.179 23.2921V12.3998H25.679V23.2921H26.179ZM22.2631 27.25C24.4264 27.25 26.179 25.4502 26.179 23.2921H25.679C25.679 25.1813 24.1431 26.75 22.2631 26.75V27.25ZM4.66595 27.25H22.2631V26.75H4.66595V27.25ZM0.75 23.2921C0.75 25.4516 2.5027 27.25 4.66595 27.25V26.75C2.78591 26.75 1.25 25.1826 1.25 23.2921H0.75ZM0.75 5.666V23.2921H1.25V5.666H0.75ZM4.66595 1.77987C2.50906 1.77987 0.75 3.50015 0.75 5.666H1.25C1.25 3.7819 2.77956 2.27987 4.66595 2.27987V1.77987ZM15.5745 1.77987H4.66595V2.27987H15.5745V1.77987ZM16.5583 2.76372C16.5583 2.22035 16.1178 1.77987 15.5745 1.77987V2.27987C15.8417 2.27987 16.0583 2.49649 16.0583 2.76372H16.5583ZM15.5745 3.74756C16.1178 3.74756 16.5583 3.30708 16.5583 2.76372H16.0583C16.0583 3.03094 15.8417 3.24756 15.5745 3.24756V3.74756ZM4.66595 3.74756H15.5745V3.24756H4.66595V3.74756ZM2.71666 5.66462C2.71666 4.59237 3.58577 3.74756 4.66595 3.74756V3.24756C3.31962 3.24756 2.21666 4.30634 2.21666 5.66462H2.71666ZM2.71666 23.2921V5.66462H2.21666V23.2921H2.71666ZM4.66595 25.2823C3.59655 25.2823 2.71666 24.3752 2.71666 23.2921H2.21666C2.21666 24.6396 3.30883 25.7823 4.66595 25.7823V25.2823Z" fill="#121213"/>
</svg>
