<svg width="26" height="26" viewBox="0 0 26 26" fill="none" xmlns="http://www.w3.org/2000/svg">
<path d="M13 0.650024C6.17929 0.650024 0.650002 6.17931 0.650002 13C0.650002 19.8207 6.17929 25.35 13 25.35C19.8207 25.35 25.35 19.8207 25.35 13C25.3428 6.18228 19.8177 0.65719 13 0.650024Z" fill="#2A87FF"/>
<path d="M13.0755 17.4264C11.6946 17.5011 10.336 17.0377 9.26 16.1248C8.97265 15.8697 8.54687 15.8901 8.28278 16.1716C8.0187 16.4532 8.00534 16.901 8.25212 17.1994C9.59511 18.3953 11.3169 19.0166 13.0755 18.9398C14.8342 19.0166 16.5559 18.3953 17.8989 17.1994C18.1457 16.901 18.1323 16.4532 17.8683 16.1716C17.6042 15.8901 17.1784 15.8697 16.8911 16.1248C15.815 17.0377 14.4564 17.5011 13.0755 17.4264Z" fill="white"/>
<path d="M10.9766 9.32948C10.9766 8.33537 10.1707 7.52948 9.17659 7.52948C8.18247 7.52948 7.37659 8.33537 7.37659 9.32948C7.37659 10.3236 8.18247 11.1295 9.17659 11.1295C10.1707 11.1295 10.9766 10.3236 10.9766 9.32948Z" fill="white"/>
<path d="M17.1766 7.52948C16.1825 7.52948 15.3766 8.33537 15.3766 9.32948C15.3766 10.3236 16.1825 11.1295 17.1766 11.1295C18.1707 11.1295 18.9766 10.3236 18.9766 9.32948C18.9766 8.33537 18.1707 7.52948 17.1766 7.52948Z" fill="white"/>
</svg>
