<svg width="32" height="32" viewBox="0 0 32 32" fill="none" xmlns="http://www.w3.org/2000/svg">
<path fill-rule="evenodd" clip-rule="evenodd" d="M9.5459 15.2989C11.3817 14.1119 15.2758 10.7424 14.7736 3.74706C14.7709 3.71076 14.7672 3.66783 14.7628 3.62147C14.7336 3.31423 14.9465 3.03227 15.2544 3.01081C15.3539 3.00388 15.4536 2.99941 15.5407 3.00009C17.3866 3.01436 20.4427 4.17035 18.7487 12.284C18.6945 12.552 18.8754 12.8086 19.1589 12.8599C19.2313 12.877 19.3037 12.8713 19.37 12.8599C19.3801 12.8587 19.3916 12.8573 19.4047 12.8558C20.5084 12.7225 32.3207 11.2959 28.088 17.4334C27.9614 17.6273 27.9855 17.8725 28.1423 18.0322C28.3353 18.2774 29.8252 20.2277 27.4607 21.3112C27.2194 21.4252 27.1048 21.6932 27.2013 21.927C27.2737 22.1266 28.0458 24.4533 26.2241 25.1946C26.013 25.2802 25.8924 25.4855 25.9105 25.6907C25.9105 26.0956 25.7959 29.3461 22.8884 28.9697C22.8643 28.964 22.8341 28.964 22.81 28.964H12.8221H11.3831C10.0776 28.964 9.01911 27.9057 9.01911 26.6003V24.5169V16.3727C9.01911 16.3271 9.01458 16.14 9.01006 15.9646C9.00467 15.756 9.11453 15.5617 9.29363 15.4546C9.37929 15.4034 9.47019 15.3478 9.5459 15.2989ZM8.16257 15.8937V27.8577V27.8976C8.15051 27.9319 8.15051 27.9718 8.15051 28.006C8.11431 28.2284 8.00574 28.428 7.84287 28.582C7.64985 28.7701 7.37841 28.8842 7.07681 28.8842H4.08576C3.79019 28.8842 3.51875 28.7701 3.3197 28.582C3.12064 28.3995 3 28.1429 3 27.8577V15.8937C3 15.6143 3.12064 15.3577 3.3197 15.1695C3.51272 14.9813 3.78416 14.8672 4.08576 14.8672H7.07681C7.37238 14.8672 7.64382 14.9813 7.84287 15.1695C8.04193 15.352 8.16257 15.6086 8.16257 15.8937Z" fill="#2A87FF"/>
</svg>
