<svg width="9" height="12" viewBox="0 0 9 12" fill="none" xmlns="http://www.w3.org/2000/svg">
<path fill-rule="evenodd" clip-rule="evenodd" d="M2.35919 3.43485C2.99583 3.08555 3.72504 2.8872 4.5 2.8872C5.26076 2.8872 5.97742 3.07834 6.60571 3.41579V2.92982C6.60571 1.82514 5.65139 0.923294 4.48245 0.923294C3.3135 0.923294 2.35919 1.82514 2.35919 2.92982V3.43485ZM7.58271 4.12425C8.45519 4.95528 9 6.13502 9 7.4436C9 9.96003 6.98528 12 4.5 12C2.01472 12 0 9.96003 0 7.4436C0 6.15266 0.530219 4.98711 1.38218 4.15804V2.92982C1.38218 1.31951 2.77884 0 4.48245 0C6.18644 0 7.58271 1.31987 7.58271 2.92982V4.12425ZM4.66953 6.08597C5.18842 6.08597 5.60923 6.48364 5.60923 6.974C5.60923 7.32551 5.39344 7.62903 5.07957 7.77334L5.23189 8.91874H4.10795L4.26065 7.77334C3.94678 7.62976 3.72984 7.32551 3.72984 6.974C3.72984 6.48364 4.15064 6.08597 4.66953 6.08597Z" fill="#2A87FF"/>
</svg>
