<svg width="32" height="32" viewBox="0 0 32 32" fill="none" xmlns="http://www.w3.org/2000/svg">
<path fill-rule="evenodd" clip-rule="evenodd" d="M21.1582 16.0667C21.1582 17.4667 20.71 18.6333 19.8136 19.6333C18.9171 20.6 17.8286 21.1 16.58 21.1C15.3314 21.1 14.2429 20.6333 13.3465 19.6333C12.4501 18.6333 11.9058 17.3667 11.9058 16V8C11.9058 6.6 12.4501 5.46667 13.3465 4.46667C14.2429 3.5 15.2994 3 16.58 3C17.8286 3 18.9171 3.46667 19.8136 4.46667C20.71 5.46667 21.1582 6.66667 21.1582 8.03333V16.0667ZM8.96045 13.0667C9.21657 13.0667 9.44068 13.1667 9.63277 13.3667C9.82486 13.5667 9.9209 13.8 9.88889 14.0667V16.0667C9.88889 18 10.5292 19.6333 11.8098 21C13.1224 22.3667 14.6591 23.0333 16.484 23.0333C18.3089 23.0333 19.8776 22.3667 21.1582 21C22.4388 19.6333 23.0791 18 23.0791 16.0667V14.0667C23.0791 13.8 23.1751 13.5667 23.3672 13.3667C23.5593 13.1667 23.7834 13.0667 24.0395 13.0667C24.2957 13.0667 24.5198 13.1667 24.7119 13.3667C24.904 13.5667 25 13.8 25 14.0667V16.0667C25 18.3333 24.2637 20.3333 22.823 22.0333C21.3823 23.7333 19.4614 24.7667 17.3164 25V27H21.2222C21.4783 27 21.7024 27.1 21.8625 27.3C22.0546 27.5 22.1507 27.7333 22.1507 28C22.1507 28.2667 22.0546 28.5 21.8625 28.7C21.6704 28.9 21.4463 29 21.1902 29H11.7778C11.5217 29 11.2976 28.9 11.1055 28.7C10.9134 28.5 10.8173 28.2667 10.8173 28C10.8173 27.7333 10.9134 27.5 11.1055 27.3C11.2976 27.1 11.5217 27 11.7778 27H15.6836V25C13.5706 24.7333 11.6177 23.7333 10.177 22.0333C8.73635 20.3667 8 18.3667 8 16.0667V14.0667C8 13.8 8.09605 13.5667 8.28814 13.3667C8.48023 13.1667 8.70433 13.0667 8.96045 13.0667Z" fill="#2A87FF"/>
</svg>
