<svg width="36" height="36" viewBox="0 0 36 36" fill="none" xmlns="http://www.w3.org/2000/svg">
<path fill-rule="evenodd" clip-rule="evenodd" d="M24.1512 6.04371C25.6761 6.22316 26.9319 6.94095 27.7841 8.0625C28.6811 9.13919 29.1296 10.5299 28.9502 12.0552C28.8156 13.5357 28.0532 14.8367 26.9767 15.689C25.8555 16.5414 24.4651 16.99 22.9402 16.8554L22.839 16.8388C22.5945 16.7989 22.324 16.7547 22.088 16.676L21.6844 16.5414L21.7741 16.0479C21.8638 15.7339 21.9086 15.4199 21.9535 15.1059L21.9535 15.1058C22.1329 13.6702 21.9086 12.3244 21.3704 11.0683C20.9219 9.9467 20.2043 8.91488 19.2625 8.10736C19.8007 7.43443 20.4734 6.89609 21.2807 6.53719C22.1329 6.08857 23.1196 5.90913 24.1512 6.04371ZM20.6561 18.6531C20.8634 18.6963 21.1613 18.7571 21.3256 18.7845C21.7741 18.8742 22.2226 18.8742 22.7159 18.8742C23.5233 18.8742 24.3306 18.7845 25.093 18.5602C25.8106 18.3808 26.5282 18.1116 27.1561 17.7527H27.3804C28.6811 17.7527 29.8472 18.2462 30.6545 19.0985C31.5066 19.9509 32 21.0725 32 22.3735V25.8425C32 26.4786 31.4843 26.9942 30.8482 26.9942H26.4691C25.833 26.9942 25.3173 26.4786 25.3173 25.8425V25.6035C25.3173 23.9436 24.5997 22.4183 23.5681 21.2519C22.8502 20.4654 21.1941 19.6528 20.4472 19.3109C20.2518 19.2214 20.1803 18.9776 20.2995 18.7987C20.3774 18.6818 20.5186 18.6244 20.6561 18.6531ZM20.2492 13.6702C20.2492 16.9408 17.5986 19.592 14.3289 19.592C11.0592 19.592 8.40864 16.9408 8.40864 13.6702C8.40864 10.3997 11.0592 7.74847 14.3289 7.74847C17.5986 7.74847 20.2492 10.3997 20.2492 13.6702ZM9.6196 20.7136H9.84385C10.5166 21.1173 11.1894 21.3865 11.9518 21.566C12.7143 21.7903 13.5216 21.88 14.3289 21.88C15.1362 21.88 15.9435 21.7903 16.706 21.566C17.4236 21.3865 18.1412 21.1173 18.7691 20.7136H18.9934C20.294 20.7136 21.4601 21.2519 22.2674 22.1043C23.1196 22.9118 23.6578 24.0782 23.6578 25.3792V27.6964C23.6578 28.9686 22.6265 30 21.3542 30H7.30359C6.03135 30 5 28.9686 5 27.6964V25.3792C5 24.0782 5.53821 22.9118 6.34551 22.1043C7.19767 21.2519 8.36379 20.7136 9.6196 20.7136Z" fill="#B8C0D2"/>
</svg>
