<svg width="36" height="36" viewBox="0 0 36 36" fill="none" xmlns="http://www.w3.org/2000/svg">
<path d="M28.8831 25.0632L25.4924 21.4942C25.0483 21.0313 24.2523 20.9985 23.7696 21.4298C23.3313 21.8203 23.0004 22.2422 22.7101 22.6127C22.4197 22.9831 22.0893 23.4001 21.9038 23.3958C21.8331 23.3985 21.7585 23.3907 21.6839 23.3828C18.3073 23.028 12.5488 16.8247 12.6192 13.6195C12.6228 13.4422 13.062 13.1382 13.4472 12.8691C13.8319 12.605 14.2656 12.3055 14.6751 11.9019C15.1626 11.4253 15.1753 10.6349 14.7046 10.1388L11.2644 6.51383C10.8203 6.05099 10.0293 6.01862 9.54263 6.43946C7.53879 8.18789 6.59054 10.6563 6.55733 12.216C6.42695 18.049 16.4535 28.898 22.5701 29.5409C22.7293 29.5576 22.8845 29.5638 23.0397 29.57C24.5801 29.5999 27.0683 28.7449 28.8817 26.7988C29.3404 26.309 29.34 25.5477 28.8831 25.0632Z" fill="#B8C0D2"/>
</svg>
