<svg width="32" height="32" viewBox="0 0 32 32" fill="none" xmlns="http://www.w3.org/2000/svg">
<path d="M25.9808 23.4303L22.8701 20.1827C22.4627 19.7616 21.7331 19.731 21.291 20.1229C20.8896 20.4775 20.5866 20.8609 20.3208 21.1975C20.055 21.534 19.7524 21.9128 19.5823 21.9088C19.5175 21.9112 19.4492 21.904 19.3808 21.8969C16.2856 21.5715 11.0026 15.9272 11.0645 13.0131C11.0677 12.8519 11.47 12.5759 11.8229 12.3315C12.1753 12.0918 12.5726 11.8198 12.9476 11.4532C13.3941 11.0202 13.4051 10.3016 12.9732 9.85021L9.81716 6.55178C9.40977 6.13062 8.68472 6.10057 8.23897 6.48281C6.40366 8.07085 5.53645 10.3143 5.50724 11.7323C5.39233 17.0354 14.591 26.907 20.198 27.4963C20.3438 27.5116 20.4861 27.5174 20.6284 27.5231C22.0403 27.5515 24.3202 26.7761 25.9809 25.0082C26.401 24.5633 26.4 23.8711 25.9808 23.4303Z" fill="#2A87FF"/>
</svg>
