<svg width="28" height="27" viewBox="0 0 28 27" fill="none" xmlns="http://www.w3.org/2000/svg">
<path fill-rule="evenodd" clip-rule="evenodd" d="M10.1771 12.6611C13.6979 12.6611 16.5521 9.84485 16.5521 6.3708C16.5521 2.89675 13.6979 0.0804749 10.1771 0.0804749C6.65626 0.0804749 3.80208 2.89675 3.80208 6.3708C3.80208 9.84485 6.65626 12.6611 10.1771 12.6611ZM5.10605 13.8525H5.34753C6.07196 14.2814 6.7964 14.5673 7.61742 14.7579C8.43844 14.9962 9.30776 15.0915 10.1771 15.0915C11.0464 15.0915 11.9157 14.9962 12.7367 14.7579C13.5095 14.5673 14.2822 14.2814 14.9583 13.8525H15.1998C16.6004 13.8525 17.8561 14.4243 18.7254 15.3297C19.643 16.1875 20.2225 17.4265 20.2225 18.8085V21.2925C20.2225 22.6314 19.1371 23.7168 17.7982 23.7168H2.55599C1.21705 23.7168 0.131622 22.6314 0.131622 21.2925V18.8085C0.131622 17.4265 0.711168 16.1875 1.58049 15.3297C2.4981 14.4243 3.75378 13.8525 5.10605 13.8525Z" fill="#006AFF"/>
<circle cx="20.5331" cy="19.482" r="6.40152" fill="#EEF2F9"/>
<path fill-rule="evenodd" clip-rule="evenodd" d="M18.7701 16.415C19.3135 16.1206 19.9359 15.9534 20.5973 15.9534C21.2467 15.9534 21.8584 16.1145 22.3946 16.399V15.9893C22.3946 15.0581 21.5801 14.2979 20.5823 14.2979C19.5846 14.2979 18.7701 15.0581 18.7701 15.9893V16.415ZM23.2285 16.9962C23.9732 17.6967 24.4382 18.6912 24.4382 19.7943C24.4382 21.9156 22.7186 23.6352 20.5973 23.6352C18.476 23.6352 16.7564 21.9156 16.7564 19.7943C16.7564 18.7061 17.209 17.7235 17.9362 17.0247V15.9893C17.9362 14.6319 19.1282 13.5196 20.5823 13.5196C22.0368 13.5196 23.2285 14.6322 23.2285 15.9893V16.9962ZM20.742 18.6498C21.1849 18.6498 21.5441 18.9851 21.5441 19.3984C21.5441 19.6947 21.3599 19.9506 21.092 20.0722L21.222 21.0378H20.2627L20.393 20.0722C20.1251 19.9512 19.94 19.6947 19.94 19.3984C19.94 18.9851 20.2991 18.6498 20.742 18.6498Z" fill="#006AFF"/>
</svg>
