<svg width="28" height="28" viewBox="0 0 28 28" fill="none" xmlns="http://www.w3.org/2000/svg">
<path d="M19.5714 1H8.42857C4.32779 1.00461 1.00461 4.32779 1 8.42857V19.5714C1.00461 23.6722 4.32779 26.9954 8.42857 27H18.6429V21.8929C18.6429 19.5338 20.5552 17.6214 22.9143 17.6214H27V8.42857C26.9954 4.32779 23.6722 1.00461 19.5714 1Z" fill="#2A87FF" stroke="white" stroke-width="0.65"/>
<path d="M13.945 17.2874C12.278 17.38 10.638 16.8062 9.33911 15.676C8.99224 15.3601 8.47826 15.3853 8.15948 15.7339C7.84069 16.0825 7.82456 16.6369 8.12246 17.0063C9.74365 18.487 11.8221 19.2562 13.945 19.1612C16.0679 19.2562 18.1463 18.487 19.7675 17.0063C20.0654 16.6369 20.0493 16.0825 19.7305 15.7339C19.4117 15.3853 18.8978 15.3601 18.5509 15.676C17.252 16.8062 15.612 17.38 13.945 17.2874Z" fill="white"/>
<path d="M10.8429 9.17143C10.8429 8.24832 10.0945 7.5 9.17143 7.5C8.24832 7.5 7.5 8.24832 7.5 9.17143C7.5 10.0945 8.24832 10.8429 9.17143 10.8429C10.0945 10.8429 10.8429 10.0945 10.8429 9.17143Z" fill="white"/>
<path d="M18.858 7.4845C17.9349 7.4845 17.1866 8.23282 17.1866 9.15593C17.1866 10.079 17.9349 10.8274 18.858 10.8274C19.7811 10.8274 20.5295 10.079 20.5295 9.15593C20.5295 8.23282 19.7811 7.4845 18.858 7.4845Z" fill="white"/>
<path d="M19.5714 27H20.9145C25.3634 26.9955 26.9956 23.3179 27 18.7799V18.6429H23.0635C21.1349 18.6429 19.5714 20.2377 19.5714 22.2049V27Z" fill="#2A87FF" stroke="white" stroke-width="0.65"/>
<mask id="mask0" mask-type="alpha" maskUnits="userSpaceOnUse" x="19" y="18" width="9" height="10">
<path d="M19.5714 27H20.9145C25.3634 26.9955 26.9956 23.3179 27 18.7799V18.6429H23.0635C21.1349 18.6429 19.5714 20.2377 19.5714 22.2049V27Z" fill="white" stroke="white" stroke-width="0.65"/>
</mask>
<g mask="url(#mask0)">
</g>
</svg>
